<svg xmlns="http://www.w3.org/2000/svg" width="255" height="86.011" viewBox="0 0 255 86.011">
    <defs>
        <style>
            .cls-1,.cls-2{fill:#2c50a8;fill-rule:evenodd}.cls-2{fill:#dd4996}
        </style>
    </defs>
    <g id="HF" transform="translate(-85 -52)">
        <path id="Path_133" d="M-2.695 41.634c4.647-7.855 10.868-16.215 30.174-23.059v-.019c11.393-3.986 21.58-6.221 30.893-16.545C53.706 9.866 47.485 18.245 28.2 25.089 16.805 29.074 6.6 31.31-2.695 41.634zM71.981 3.469h3.713V15.64a4.86 4.86 0 0 1 4.491-2.975 5.776 5.776 0 0 1 4.7 2.119 8.256 8.256 0 0 1 1.815 5.308v11.937H83v-11.8a4.245 4.245 0 0 0-.894-2.722 3.426 3.426 0 0 0-2.858-1.128 3.915 3.915 0 0 0-3.558 2.469v13.181h-3.709V3.469zm174.9 17.75v-.058a11.541 11.541 0 0 0-2.489-6.8 11.189 11.189 0 0 0-16.273-.175 11.457 11.457 0 0 0-2.664 7.388 10.77 10.77 0 0 0 10.732 10.81 10.3 10.3 0 0 0 4.8-1.225v-4.53a6.825 6.825 0 0 1-4.8 1.983 7.007 7.007 0 0 1-6.96-7.038 7.649 7.649 0 0 1 1.75-4.9 7.395 7.395 0 0 1 10.518.117 7.556 7.556 0 0 1 1.633 4.724v.156l-.019.156v7.932l.019-.019v2.7h3.752V21.881l.039-.311-.039-.35zM220.79 12.16v19.87h-4.005V12.16zm-.019-7.349a2.7 2.7 0 0 1 .817 1.983 2.669 2.669 0 0 1-.817 1.983 2.775 2.775 0 0 1-2 .817 2.719 2.719 0 0 1-1.964-.817 2.686 2.686 0 0 1-.836-1.983 2.821 2.821 0 0 1 2.8-2.8 2.775 2.775 0 0 1 2 .817zm-22.3 12.676v14.542h-4.005V12.16h4.005v2.314a4.938 4.938 0 0 1 5.055-3.4 6.334 6.334 0 0 1 5.113 2.294 8.88 8.88 0 0 1 1.961 5.752v12.909h-4V19.275a3.982 3.982 0 0 0-1.244-2.955 4.272 4.272 0 0 0-5.969-.019 4.84 4.84 0 0 0-.914 1.186zm-22.63 8.652V12.16h4.005v13.648a2.48 2.48 0 0 0 .719 1.789 2.382 2.382 0 0 0 1.691.7c1.575 0 2.372-.992 2.372-2.955V12.16h4.024v13.92a6.206 6.206 0 0 1-1.866 4.336 6.122 6.122 0 0 1-4.53 1.886 5.74 5.74 0 0 1-4.374-1.847 5.854 5.854 0 0 1-4.413 1.847 6.375 6.375 0 0 1-6.377-6.221V12.16h3.986v13.181c0 1.964.8 2.955 2.391 2.955a2.38 2.38 0 0 0 1.711-.7 2.3 2.3 0 0 0 .661-1.458zm-29.008-9.449a6.853 6.853 0 0 0 0 9.721 6.647 6.647 0 0 0 4.88 2 6.87 6.87 0 0 0 6.887-6.861 6.578 6.578 0 0 0-2.022-4.86 6.534 6.534 0 0 0-4.86-2.041 6.608 6.608 0 0 0-4.88 2.041zm4.88-6.144a10.511 10.511 0 0 1 7.757 3.227 10.523 10.523 0 0 1 3.23 7.777 10.554 10.554 0 0 1-3.227 7.777 10.96 10.96 0 0 1-15.534 0 10.629 10.629 0 0 1-3.227-7.777 10.6 10.6 0 0 1 3.227-7.777 10.585 10.585 0 0 1 7.777-3.227zm-22.2 1.614V4.713h4.005v7.447h3.577v4.005h-3.577v15.864h-4.008V16.165h-3.577V12.16zm-12.987 2.683a7.167 7.167 0 0 1 5.5-3.188v4.161a5.158 5.158 0 0 0-3.48 1.4 6.538 6.538 0 0 0-2.022 4.608v10.205h-4.005V12.16h4.005v2.683zM99.492 32.3a8.272 8.272 0 0 1-6.066-2.294 8.015 8.015 0 0 1-2.352-5.755V12.16h4.005V24.1a4.031 4.031 0 0 0 1.264 2.955 4.327 4.327 0 0 0 3.13 1.244 4.113 4.113 0 0 0 2.975-1.225 3.989 3.989 0 0 0 1.282-2.974V12.16h3.986v12.093a7.912 7.912 0 0 1-8.224 8.047z" class="cls-1" data-name="Path 133" transform="translate(92.808 62.101)"/>
        <path id="Path_134" d="M95.068 64.457a6.82 6.82 0 0 1 5.288-3.052v3.986a4.9 4.9 0 0 0-3.325 1.341 6.31 6.31 0 0 0-1.964 4.433v9.818h-3.83V61.872h3.83v2.586zM8.007 40.991c4.666-7.855 10.887-16.215 30.174-23.058 11.412-3.986 21.6-6.241 30.913-16.545C64.428 9.243 58.206 17.6 38.9 24.446v.019c-11.393 3.986-21.58 6.222-30.893 16.526zM-2.958 64.613A42.516 42.516 0 0 1 7.7 56.02a27.414 27.414 0 0 0 2.524 7.58 41.556 41.556 0 0 0 5.56 8.224A70.212 70.212 0 0 0 30.346 84.56h.039a74.709 74.709 0 0 0 10.363-8.516 49.98 49.98 0 0 0 8.36-10.674 29.453 29.453 0 0 0 2.761-6.416 21.346 21.346 0 0 0 .739-3.519c.078-.6.117-1.205.175-1.808l.058-1.672.447-12.521-4.7 3.869.311 8.652.058 1.672c0 .486.019.992 0 1.5a20.138 20.138 0 0 1-.35 3.033 27.1 27.1 0 0 1-1.944 5.969 48.237 48.237 0 0 1-7.043 10.885 67.943 67.943 0 0 1-9.254 8.574c-4.783-4.1-9.079-8.166-12.521-13.318a38.134 38.134 0 0 1-4.18-8.166 21.183 21.183 0 0 1-1.365-8.378c4.958-2.2 10.149-3.733 15.631-5.638v-.019c19.286-6.844 25.508-15.2 30.174-23.058-9.313 10.3-19.5 12.559-30.893 16.545C7.91 48.4 1.689 56.778-2.958 64.613zM38.162 50.4a14.647 14.647 0 0 0 6.183-1.478 12.276 12.276 0 0 1 2.08 1.069 12.975 12.975 0 0 1-6.513 1.964 12.975 12.975 0 0 1-6.512-1.962l.505-.311a13.806 13.806 0 0 0 4.258.719zm-4.18 15.476l-2.43 1.264a2.4 2.4 0 0 1-2.45 0l-2.352-1.264zm47.963-6.435a2.027 2.027 0 0 1 .622-1.4 2.119 2.119 0 0 1 1.458-.622 5.546 5.546 0 0 1 2.858.875v-3.849a10.831 10.831 0 0 0-3.013-.645 5.563 5.563 0 0 0-3.908 1.575 5.909 5.909 0 0 0-1.75 3.927v3.308h-1.866v3.713h1.866V81.08h3.733V66.324h4.938V62.61h-4.938v-3.169zM105.8 85.163h4.083l11.16-23.291h-4.316l-4.841 10.46-4.841-10.46h-4.336l7.116 14.854-4.025 8.437zm103.839-14.542v-.078a11.124 11.124 0 0 0-2.391-6.532 10.766 10.766 0 0 0-15.651-.175 11.166 11.166 0 0 0-2.547 7.116 10.351 10.351 0 0 0 10.3 10.382 9.856 9.856 0 0 0 4.627-1.186v-4.336a6.66 6.66 0 0 1-4.627 1.905 6.755 6.755 0 0 1-6.688-6.766 7.473 7.473 0 0 1 1.672-4.724 7.159 7.159 0 0 1 10.129.117 7.569 7.569 0 0 1 1.575 4.549v.136l-.019.156v7.621h.019v2.605h3.6V71.223l.039-.272-.039-.331zm38.553 10.363h3.85V53.4h-3.85v27.583zm-20.336-11.569v2.994a6.217 6.217 0 0 0 1.789 3.188 6.429 6.429 0 0 0 4.686 1.925 6.63 6.63 0 0 0 0-13.259 6.39 6.39 0 0 0-4.686 1.964 6.217 6.217 0 0 0-1.789 3.188zm0 9.2V87.4h-3.849V61.872h3.849V63.6a8.312 8.312 0 0 1 6.474-3.266 10.572 10.572 0 0 1 7.47 18.044 10.172 10.172 0 0 1-7.466 3.091 8.773 8.773 0 0 1-6.474-2.858zm-8.865-2a2.693 2.693 0 0 1-1.905 4.608 2.584 2.584 0 0 1-1.886-.778 2.7 2.7 0 0 1 0-3.83 2.7 2.7 0 0 1 3.791 0zm-38.009-12.158a6.786 6.786 0 0 1 5.269-3.052v3.986a4.976 4.976 0 0 0-3.325 1.341 6.29 6.29 0 0 0-1.944 4.433v9.818h-3.85V61.872h3.85v2.586zm-14.912.311a5.439 5.439 0 0 0-2.916-.505 6.638 6.638 0 0 0-6.61 6.63 5.486 5.486 0 0 0 .505 2.916l9.021-9.04zm-6.416 11.879a5.4 5.4 0 0 0 3.5.855 6.473 6.473 0 0 0 4.7-1.925c.156-.175.486-.564.972-1.147l3.85 1.38a24.883 24.883 0 0 1-2.041 2.566 10.572 10.572 0 0 1-14.951-14.951 10.566 10.566 0 0 1 14.037-.836 12.239 12.239 0 0 1 .914.836q.175.175 1.05 1.167l-1.925 1.944-10.11 10.11zM147.6 53.959a2.723 2.723 0 1 1-1.925-.778 2.627 2.627 0 0 1 1.925.778zm-5.91 27.88c1.4-.156 2.08-.583 2.08-1.3V61.872h3.849V80.5c0 3.13-1.983 4.86-5.93 5.172v-3.83zM131.5 65.721h-7.835v-3.85h14.465l-8.71 15.242h8.535v3.869h-15.124z" class="cls-2" data-name="Path 134" transform="translate(87.958 50.612)"/>
    </g>
</svg>
